<svg xmlns="http://www.w3.org/2000/svg" data-name="Background 17" viewBox="0 0 1130.06 1321.23" id="house"><path fill="#f5f5fc" d="M412.74 305.54S29.63 510.66 218.18 877.1c135.16 262.67 218.24 430.05 442.51 470.17 203.85 36.46 458.17 29.69 549-188.39s58.63-192.61 11.41-382.56 106.82-388.67-85.21-469.32C893.69 205.26 972.74 23.74 685.69 44.45c-174.64 12.6-272.95 261.09-272.95 261.09Z" transform="translate(-165.63 -42.82)"></path><path fill="#eaedfb" d="M286.13 775.56s-114-269.36 91-436.94S547 411.39 609.5 402.79s53.8-36.68 115.31-80.69c36.17-25.89 94.17-7 111.08 57.52S900 442 938 381.77s79.94-94.61 118.54-53.76 57.49 111.81 79.35 107.51-33.73-97.41-10-110.23c18.36-9.93 82.81 1.1 100.48 74 17.06 70.4-59.63 188-55.37 262.63s12.39 52.87 25.5 97Z" opacity=".32" transform="translate(-165.63 -42.82)"></path><path fill="#eaedfb" d="M203.51 849.88S74.33 563.17 306.69 384.8 499.21 462.25 570 453.1s61-39 130.68-85.89c41-27.56 106.73-7.44 125.89 61.22s72.68 66.38 115.73 2.29 90.6-100.7 134.34-57.22 65.17 119 89.94 114.44 20.81-100.71 30.8-100.71 41.69-22.07 37.48 54.93-33.34 207.28-28.52 286.74 14.05 56.27 28.9 103.23Z" transform="translate(-165.63 -42.82)"></path><path fill="#e1e6fb" d="M203.51 849.88S234 688.65 382 688.65s188 161.23 188 161.23Z" transform="translate(-165.63 -42.82)"></path><path fill="#e1e6fb" d="M471.41 847.19s30.51-263.06 178.46-263.06 188 263.06 188 263.06Z" transform="translate(-165.63 -42.82)"></path><path fill="#e1e6fb" d="M826.58 832.13S857.09 611.87 1005 611.87s188 220.26 188 220.26Z" transform="translate(-165.63 -42.82)"></path><path fill="#bac5f4" d="M675.22 832.13s30.51-226.75 178.45-226.75 188.05 226.75 188.05 226.75Z" transform="translate(-165.63 -42.82)"></path><path fill="#eaedfb" d="M488.37 201.53s34.81 27.61 71.49 3.6 72 2.19 75.08-35.77c1.27-15.52-23.15-36.37-66.89-27s-39.32-17.94-82.3-11.09c-36.68 5.84-66.09 18-58.48 49.88s61.1 20.38 61.1 20.38ZM880.84 274.05s23.26 22.69 51.75 8 52.19 7 57.31-20.41c2.09-11.2-14.13-28.2-46.65-24.64s-27.25-16-59.06-14.26c-27.13 1.51-49.44 8.18-46.28 31.92s42.93 19.39 42.93 19.39Z" transform="translate(-165.63 -42.82)"></path><g><path fill="#e1e6fb" d="m354.06 754.28 186-233 210 223-396 10z"></path><path fill="#bac5f4" d="M402.56 753.78v166l319 4v-179h-332v8l13 1z"></path><path fill="#b0c0f4" d="M812.06 814.28v91h-90.5l-.5-161h29l62 70z"></path><path fill="#a0b5ef" d="M475.06 774.28h21v55h-21zM499.06 774.28h21v55h-21zM558.06 774.28h21v55h-21zM623.06 774.28h21v55h-21zM582.06 777.28h38v49h-38z"></path><path fill="#e1e6fb" d="M584.06 780.28h33v43h-33z"></path><path fill="#a0b5ef" d="M600.06 780.28h1v44h-1z"></path><path fill="#b0c0f4" d="m354.06 754.28 186-233 272 293 7-7-279-300-191 243 5 4z"></path><path fill="#e1e6fb" d="m540.06 507.28 109 81 214 220h-44l-279-301z"></path><path fill="#b0c0f4" d="M812.06 814.28h47l4-6h-44l-7 6z"></path><g data-name="Layer 6"><rect width="9.77" height="72.92" x="565.12" y="889.27" fill="#a0b5ef" rx="4.89" transform="rotate(.71 3944.104 -12458.747)"></rect><rect width="9.77" height="72.92" x="581.82" y="889.48" fill="#a0b5ef" rx="4.89" transform="rotate(.71 3961.05 -12458.852)"></rect><rect width="9.77" height="72.92" x="599.71" y="889.7" fill="#a0b5ef" rx="4.89" transform="rotate(.71 3978.809 -12458.155)"></rect><rect width="9.77" height="72.92" x="617.6" y="889.92" fill="#a0b5ef" rx="4.89" transform="rotate(.71 3996.562 -12458.265)"></rect><rect width="9.77" height="72.92" x="635.2" y="890.14" fill="#a0b5ef" rx="4.89" transform="rotate(.71 4014.32 -12457.568)"></rect><rect width="9.77" height="72.92" x="653.46" y="890.37" fill="#a0b5ef" rx="4.89" transform="rotate(.71 4032.88 -12457.683)"></rect><rect width="9.77" height="72.92" x="670.15" y="890.58" fill="#a0b5ef" rx="4.89" transform="rotate(.71 4049.827 -12457.788)"></rect><rect width="9.77" height="72.92" x="688.04" y="890.8" fill="#a0b5ef" rx="4.89" transform="rotate(.71 4067.586 -12457.091)"></rect><rect width="9.77" height="72.92" x="705.93" y="891.02" fill="#a0b5ef" rx="4.89" transform="rotate(.71 4085.34 -12457.201)"></rect><rect width="9.77" height="72.92" x="723.53" y="891.24" fill="#a0b5ef" rx="4.89" transform="rotate(.71 4103.097 -12456.504)"></rect><rect width="9.77" height="72.92" x="742.47" y="891.48" fill="#a0b5ef" rx="4.89" transform="rotate(.71 4121.658 -12456.62)"></rect><rect width="9.77" height="72.92" x="759.17" y="891.68" fill="#a0b5ef" rx="4.89" transform="rotate(.71 4138.604 -12456.724)"></rect><rect width="9.77" height="72.92" x="777.06" y="891.91" fill="#a0b5ef" rx="4.89" transform="rotate(.71 4156.363 -12456.027)"></rect><rect width="9.77" height="72.92" x="794.94" y="892.13" fill="#a0b5ef" rx="4.89" transform="rotate(.71 4174.923 -12456.142)"></rect><rect width="9.77" height="72.92" x="812.55" y="892.35" fill="#a0b5ef" rx="4.89" transform="rotate(.71 4191.874 -12455.44)"></rect><rect width="9.77" height="72.92" x="830.8" y="892.57" fill="#a0b5ef" rx="4.89" transform="rotate(.71 4210.435 -12455.555)"></rect><rect width="9.77" height="72.92" x="847.5" y="892.78" fill="#a0b5ef" rx="4.89" transform="rotate(.71 4227.386 -12454.853)"></rect><rect width="9.77" height="72.92" x="865.39" y="893" fill="#a0b5ef" rx="4.89" transform="rotate(.71 4245.14 -12454.963)"></rect><rect width="9.77" height="72.92" x="883.28" y="893.23" fill="#a0b5ef" rx="4.89" transform="rotate(.71 4262.893 -12455.073)"></rect><rect width="9.77" height="72.92" x="900.88" y="893.45" fill="#a0b5ef" rx="4.89" transform="rotate(.71 4280.651 -12454.376)"></rect><rect width="9.77" height="72.92" x="919.17" y="893.67" fill="#a0b5ef" rx="4.89" transform="rotate(.71 4299.212 -12454.491)"></rect><rect width="9.77" height="72.92" x="937.43" y="893.9" fill="#a0b5ef" rx="4.89" transform="rotate(.71 4317.777 -12453.8)"></rect><rect width="9.77" height="72.92" x="954.12" y="894.11" fill="#a0b5ef" rx="4.89" transform="rotate(.71 4333.917 -12453.9)"></rect><rect width="9.77" height="72.92" x="972.01" y="894.33" fill="#a0b5ef" rx="4.89" transform="rotate(.71 4352.477 -12454.014)"></rect><rect width="9.77" height="72.92" x="989.9" y="894.55" fill="#a0b5ef" rx="4.89" transform="rotate(.71 4370.235 -12453.317)"></rect><rect width="9.77" height="72.92" x="1007.5" y="894.77" fill="#a0b5ef" rx="4.89" transform="rotate(.71 4387.989 -12453.427)"></rect><rect width="452.18" height="4.98" x="565" y="934.49" fill="#a0b5ef" rx="2.49" transform="rotate(.71 4166.101 -12447.21)"></rect><rect width="452.18" height="4.98" x="565.26" y="913.49" fill="#a0b5ef" rx="2.49" transform="rotate(.71 4165.971 -12468.192)"></rect></g><g data-name="Layer 5"><circle cx="546.56" cy="624.78" r="11.5" fill="#fff"></circle><path fill="#fff" d="M379.06 753.28h-1v-29.06l.42-.59.58-.67v30.32zM399.06 744.28h-1v-45.12l.39-.48.61-.79v46.39zM418.06 744.28h-1v-68.92l.43-.53.57-.74v70.19zM437.06 744.28h-1v-92.72l.44-.55.56-.7v93.97zM457.06 744.28h-1V626.51l.39-.51.61-.72v119zM476.06 744.28h-1V602.71l.31-.4.69-.86v142.83zM496.06 744.28h-1V577.65l.28-.35.72-.9v167.88zM515.06 744.28h-1V553.85l.24-.33.76-.92v191.68zM709.06 745.28h-1v-43.05l.66.73.34.37v41.95zM728.06 744.28h-1v-21.56l.64.68.36.39v20.49zM689.06 744.28h-1v-63.6l.61.68.39.42v62.5zM670.06 744.28h-1v-84.04l.6.64.4.44v82.96zM651.06 744.28h-1V639.77l.25.26.44.48.31.34v103.43zM631.06 744.28h-1V618.22l.55.59.45.5v124.97zM612.06 744.28h-1V597.74l.5.56.5.54v145.44zM593.06 744.28h-1v-167l.54.61.46.48v165.91zM574.06 744.28h-1V556.8l.55.6.45.5v186.38zM534.06 744.28h-1V530.05l.24-.3.76-.95v215.48zM554.06 744.28h-1v-209l1 1v-.03 208.03z"></path></g></g><g><g data-name="Layer 8"><path fill="none" stroke="#fff" stroke-miterlimit="10" stroke-width="6" d="M188.69 877.1s80.38-32.38 83.7-128.05c0 0 47.17-13.95 44.51-73.08s-2-35.77-8-56.75M194.15 630.44S166 728 272.39 749.05" transform="translate(-165.63 -42.82)"></path><path fill="none" stroke="#fff" stroke-miterlimit="10" stroke-width="6" d="M70.33 799.19 66.6 606.44l-.64-33.46"></path><path fill="none" stroke="#fff" stroke-miterlimit="10" stroke-width="6" d="M293.51 564.1s7.14 59.52-61.28 85.16M316.59 689.75s50.14-2.3 66.35-59.31M266.88 785.63s95.66 15.82 116.06-72.56" transform="translate(-165.63 -42.82)"></path><path fill="#bac5f4" d="M455.63 718.3H308.2s-9.92-38.18 41.56-26.15c0 0 20.11-18.82 38.41-9.41s17.26 16.46 17.26 16.46 42.36-14.89 50.2 19.1ZM330.4 631h146.85s9.88-38.18-41.4-26.15c0 0-20-18.83-38.25-9.42s-17.19 16.47-17.19 16.47-42.2-14.9-50.01 19.1ZM165.63 633.57h156s10.49-45.38-44-31.08c0 0-21.26-22.38-40.63-11.19s-18.25 19.57-18.25 19.57-44.82-17.71-53.12 22.7ZM184.59 572.8h187.13s-8.36-53.65-58.37-20.31c0 0 .65-34.28-37.74-34.28-42.24 0-44 28.5-44 28.5s-37.06-14.32-47.02 26.09Z" transform="translate(-165.63 -42.82)"></path></g><path fill="none" stroke="#fff" stroke-miterlimit="10" stroke-width="6" d="M1270.53 943.67s-81.07-33-83.71-128.68c0 0-47.62-14.31-44.49-73.42s2.29-35.75 8.5-56.69M1266.86 697s27.72 97.8-80 118" transform="translate(-165.63 -42.82)"></path><path fill="none" stroke="#fff" stroke-miterlimit="10" stroke-width="6" d="m1057.35 865.4 5.22-192.71.9-33.45"></path><path fill="none" stroke="#fff" stroke-miterlimit="10" stroke-width="6" d="M1166.84 629.88s-7.67 59.47 61.35 85.63M1142.55 755.35s-50.71-2.68-66.68-59.81M1192.11 851.62s-96.9 15.09-116.87-73.45" transform="translate(-165.63 -42.82)"></path><path fill="#bac5f4" d="m1001.66 782.85 149.16 1.15s10.32-38.1-41.85-26.46c0 0-20.2-19-38.79-9.71s-17.58 16.33-17.58 16.33-42.74-15.25-50.94 18.69ZM1129 696.47l-148.57-1.12s-9.71-38.25 42.08-25.83c0 0 20.4-18.68 38.77-9.13s17.27 16.6 17.27 16.6 42.82-14.57 50.45 19.48ZM1295.69 700.33l-157.78-1.19s-10.27-45.46 44.71-30.75c0 0 21.69-22.22 41.19-10.88s18.32 19.71 18.32 19.71 45.47-17.36 53.56 23.11ZM1277 639.42 1087.66 638s8.85-53.58 59.19-19.86c0 0-.39-34.29 38.45-34 42.73.33 44.32 28.84 44.32 28.84s37.58-14.05 47.38 26.44Z" transform="translate(-165.63 -42.82)"></path></g></svg>