<svg xmlns="http://www.w3.org/2000/svg" enable-background="new 0 0 300 300" viewBox="0 0 300 300" id="woman-getting-treatment-inside-quarantine-ward"><path fill="#fdc782" d="M252.5,230.2H51.4c0,0-28.5-32.8-21.4-72s25.6-53.4,71.2-56.5c40.8-2.8,32.7-28,66.4-30.5    c35.6-2.7,77.6,11.3,97.9,65.6C283.4,184.6,252.5,230.2,252.5,230.2z"></path><path fill="#f28e20" d="M270.4,156.8H30.3c0,0,0.2-1.1,0.3-1.5c0.1-0.3,0.3-1.4,0.3-1.4H270c0,0,0.2,1,0.2,1.3    C270.3,155.7,270.4,156.8,270.4,156.8z"></path><rect width="65.5" height="61.9" x="151.5" y="92.3" fill="#99daf3"></rect><polygon fill="#fff" points="160.1 92.3 179.9 154.2 184.2 154.2 162.9 92.3" opacity=".58"></polygon><polygon fill="#fff" points="177.7 92.3 202.3 154.2 216.4 154.2 192.5 92.3" opacity=".58"></polygon><path fill="#b07754" d="M227.7,90.2c-0.7,0-1.3,0.5-1.5,1.1h-83.9c-0.2-0.6-0.8-1.1-1.5-1.1c-0.9,0-1.6,0.7-1.6,1.6        c0,0.9,0.7,1.6,1.6,1.6c0.7,0,1.3-0.5,1.5-1.1h83.9c0.2,0.6,0.8,1.1,1.5,1.1c0.9,0,1.6-0.7,1.6-1.6        C229.4,90.9,228.6,90.2,227.7,90.2z"></path><path fill="#5069b0" d="M226.5,158.3V92.6c0-0.4-0.3-0.7-0.7-0.7h-17c-0.4,0-0.7,0.3-0.7,0.7v65.7c0,0.4,0.3,0.7,0.7,0.7h17          C226.2,159,226.5,158.7,226.5,158.3z"></path><rect width=".6" height="67.1" x="211.8" y="91.9" fill="#415591"></rect><rect width=".6" height="67.1" x="209.7" y="91.9" fill="#415591"></rect><rect width=".6" height="67.1" x="215.9" y="91.9" fill="#415591"></rect><rect width=".6" height="67.1" x="213.8" y="91.9" fill="#415591"></rect><rect width=".6" height="67.1" x="219.9" y="91.9" fill="#415591"></rect><rect width=".6" height="67.1" x="217.8" y="91.9" fill="#415591"></rect><rect width=".6" height="67.1" x="224" y="91.9" fill="#415591"></rect><rect width=".6" height="67.1" x="221.9" y="91.9" fill="#415591"></rect><path fill="#925227" d="M220.2 92.3L220.2 92.3c-.1 0-.2-.1-.2-.2v-1.5c0-.1.1-.2.2-.2l0 0c.1 0 .2.1.2.2v1.5C220.4 92.2 220.3 92.3 220.2 92.3zM218.1 92.3L218.1 92.3c-.1 0-.2-.1-.2-.2v-1.5c0-.1.1-.2.2-.2l0 0c.1 0 .2.1.2.2v1.5C218.3 92.2 218.2 92.3 218.1 92.3zM216.1 92.3L216.1 92.3c-.1 0-.2-.1-.2-.2v-1.5c0-.1.1-.2.2-.2l0 0c.1 0 .2.1.2.2v1.5C216.3 92.2 216.2 92.3 216.1 92.3zM214.1 92.3L214.1 92.3c-.1 0-.2-.1-.2-.2v-1.5c0-.1.1-.2.2-.2l0 0c.1 0 .2.1.2.2v1.5C214.3 92.2 214.2 92.3 214.1 92.3zM212.1 92.3L212.1 92.3c-.1 0-.2-.1-.2-.2v-1.5c0-.1.1-.2.2-.2l0 0c.1 0 .2.1.2.2v1.5C212.2 92.2 212.2 92.3 212.1 92.3zM210 92.3L210 92.3c-.1 0-.2-.1-.2-.2v-1.5c0-.1.1-.2.2-.2h0c.1 0 .2.1.2.2v1.5C210.2 92.2 210.1 92.3 210 92.3zM224.3 92.3L224.3 92.3c-.1 0-.2-.1-.2-.2v-1.5c0-.1.1-.2.2-.2l0 0c.1 0 .2.1.2.2v1.5C224.5 92.2 224.4 92.3 224.3 92.3zM222.2 92.3L222.2 92.3c-.1 0-.2-.1-.2-.2v-1.5c0-.1.1-.2.2-.2l0 0c.1 0 .2.1.2.2v1.5C222.4 92.2 222.3 92.3 222.2 92.3z"></path><path fill="#5069b0" d="M160.7,158.2V92.4c0-0.4-0.3-0.7-0.7-0.7h-17c-0.4,0-0.7,0.3-0.7,0.7v65.7c0,0.4,0.3,0.7,0.7,0.7h17          C160.4,158.9,160.7,158.6,160.7,158.2z"></path><rect width=".6" height="67.1" x="146" y="91.7" fill="#415591"></rect><rect width=".6" height="67.1" x="143.9" y="91.7" fill="#415591"></rect><rect width=".6" height="67.1" x="150.1" y="91.7" fill="#415591"></rect><rect width=".6" height="67.1" x="148" y="91.7" fill="#415591"></rect><rect width=".6" height="67.1" x="154.2" y="91.7" fill="#415591"></rect><rect width=".6" height="67.1" x="152.1" y="91.7" fill="#415591"></rect><rect width=".6" height="67.1" x="158.2" y="91.7" fill="#415591"></rect><rect width=".6" height="67.1" x="156.1" y="91.7" fill="#415591"></rect><path fill="#925227" d="M154.4 92.2L154.4 92.2c-.1 0-.2-.1-.2-.2v-1.6c0-.1.1-.2.2-.2l0 0c.1 0 .2.1.2.2V92C154.6 92.1 154.5 92.2 154.4 92.2zM152.3 92.2L152.3 92.2c-.1 0-.2-.1-.2-.2v-1.6c0-.1.1-.2.2-.2l0 0c.1 0 .2.1.2.2V92C152.5 92.1 152.4 92.2 152.3 92.2zM150.4 92.2L150.4 92.2c-.1 0-.2-.1-.2-.2v-1.6c0-.1.1-.2.2-.2l0 0c.1 0 .2.1.2.2V92C150.6 92.1 150.5 92.2 150.4 92.2zM148.4 92.2L148.4 92.2c-.1 0-.2-.1-.2-.2v-1.6c0-.1.1-.2.2-.2l0 0c.1 0 .2.1.2.2V92C148.6 92.1 148.5 92.2 148.4 92.2zM146.3 92.2L146.3 92.2c-.1 0-.2-.1-.2-.2v-1.6c0-.1.1-.2.2-.2l0 0c.1 0 .2.1.2.2V92C146.5 92.1 146.4 92.2 146.3 92.2zM144.2 92.2L144.2 92.2c-.1 0-.2-.1-.2-.2v-1.6c0-.1.1-.2.2-.2l0 0c.1 0 .2.1.2.2V92C144.4 92.1 144.3 92.2 144.2 92.2zM158.5 92.2L158.5 92.2c-.1 0-.2-.1-.2-.2v-1.6c0-.1.1-.2.2-.2l0 0c.1 0 .2.1.2.2V92C158.7 92.1 158.6 92.2 158.5 92.2zM156.4 92.2L156.4 92.2c-.1 0-.2-.1-.2-.2v-1.6c0-.1.1-.2.2-.2l0 0c.1 0 .2.1.2.2V92C156.6 92.1 156.5 92.2 156.4 92.2z"></path><g><path fill="#2178bd" d="M167.4,150.2l0.7,2.8c0,0-0.8,5.8,0.5,7c1.3,1.2,1-2.6,1-2.6s2.6,2.2,2.6,3s0.3,3,1.6,2.3        c1.3-0.7,3.1-3.3,1.3-6c-1.8-2.7-2.6-3.9-2.6-3.9l-0.3-3.4l-1-0.2C169.9,149,168.5,149.4,167.4,150.2L167.4,150.2z"></path><path fill="#246592" d="M172 158.1C172 158.1 172 158.1 172 158.1l.2.2c.5.5.9 1.1 1 1.8l.6 2.2c0 0 0 .1 0 .1 0 0-.1 0-.1 0l-.6-2.2c-.2-.7-.5-1.3-1-1.7L172 158.1C171.9 158.2 172 158.1 172 158.1 172 158.1 172 158.1 172 158.1zM172.9 157.4C172.9 157.4 172.9 157.4 172.9 157.4l.2.2c.5.5.9 1.1 1 1.8l.6 2.2c0 0 0 .1 0 .1 0 0-.1 0-.1 0l-.6-2.2c-.2-.7-.5-1.3-1-1.7L172.9 157.4C172.8 157.4 172.8 157.4 172.9 157.4 172.9 157.4 172.9 157.4 172.9 157.4zM173.7 156.6C173.7 156.6 173.7 156.6 173.7 156.6l.2.2c.5.5.9 1.1 1 1.8l.5 1.8c0 0 0 .1 0 .1 0 0-.1 0-.1 0l-.5-1.8c-.2-.7-.5-1.3-1-1.7L173.7 156.6C173.6 156.6 173.6 156.6 173.7 156.6 173.7 156.5 173.7 156.5 173.7 156.6z"></path><path fill="#2178bd" d="M132.6,150.2l-0.7,2.8c0,0,0.8,5.8-0.5,7c-1.3,1.2-1-2.6-1-2.6s-2.6,2.2-2.6,3s-0.3,3-1.6,2.3        s-3.1-3.3-1.3-6c1.8-2.7,2.6-3.9,2.6-3.9l0.3-3.4l1-0.2C130.2,149,131.5,149.4,132.6,150.2L132.6,150.2z"></path><path fill="#246592" d="M128 158.1C128 158.1 128 158.1 128 158.1l-.2.2c-.5.5-.9 1.1-1 1.8l-.6 2.2c0 0 0 .1 0 .1 0 0 .1 0 .1 0l.6-2.2c.2-.7.5-1.3 1-1.7L128 158.1C128.1 158.2 128.1 158.1 128 158.1 128 158.1 128 158.1 128 158.1zM127.1 157.4C127.1 157.4 127.1 157.4 127.1 157.4l-.2.2c-.5.5-.9 1.1-1 1.8l-.6 2.2c0 0 0 .1 0 .1 0 0 .1 0 .1 0l.6-2.2c.2-.7.5-1.3 1-1.7L127.1 157.4C127.2 157.4 127.2 157.4 127.1 157.4 127.2 157.4 127.1 157.4 127.1 157.4zM126.3 156.6C126.3 156.6 126.3 156.6 126.3 156.6l-.2.2c-.5.5-.9 1.1-1 1.8l-.5 1.8c0 0 0 .1 0 .1 0 0 .1 0 .1 0l.5-1.8c.2-.7.5-1.3 1-1.7L126.3 156.6C126.4 156.6 126.4 156.6 126.3 156.6 126.3 156.5 126.3 156.5 126.3 156.6z"></path><path fill="#fff" d="M173.6,150.8l-4.6-26.7c-0.6-3.4-2.9-6.3-6.1-7.7l-4.5-1.9c0,0,0.7-11.8-4.2-14.7       c-0.9-0.5-1.3-0.9-4.1-0.9s-3.2,0.4-4.1,0.9c-4.9,2.9-4.2,14.7-4.2,14.7l-4.9,2c-3,1.2-5.1,3.9-5.7,7l-5.2,27.2h7.9l-0.5,61.1       h12.2l2.9-48.5l1.8-0.7l1.8,0.7l2.9,48.5h12.2l-0.5-61.1H173.6z"></path><polyline fill="none" stroke="#004b75" stroke-linecap="round" stroke-linejoin="round" stroke-miterlimit="10" stroke-width=".646" points="160.3 130.7 162.8 150 166.4 150.8"></polyline><polyline fill="none" stroke="#004b75" stroke-linecap="round" stroke-linejoin="round" stroke-miterlimit="10" stroke-width=".646" points="140 130.7 137.4 150 133.8 150.8"></polyline><path fill="#e3e4e5" d="M165.1 134.9c.4.9 1.1 1.7 2 2 .8.3 2.3.6 2.3 1.7-.3-1-1.5-1-2.4-1.4C166 136.8 165.3 135.9 165.1 134.9L165.1 134.9zM169.2 142.8c-.9-.3-1.9-.4-2.8-.1-.8.3-2 1.2-2.8.4 1 .5 1.8-.3 2.7-.7C167.3 142 168.4 142.2 169.2 142.8L169.2 142.8zM134.7 146.6c-.9-.3-1.9-.4-2.8-.1-.8.3-2 1.2-2.8.4 1 .5 1.8-.3 2.7-.7C132.7 145.9 133.8 146 134.7 146.6L134.7 146.6zM137.5 136.4c-.6.8-.9 1.8-.8 2.7.1.9.6 2.2-.3 2.8.7-.8.1-1.8 0-2.8C136.3 138.1 136.7 137 137.5 136.4L137.5 136.4z"></path><g><path fill="#2178bd" d="M157.2,211.9h7.7c0.8,0,1.5,0.7,1.5,1.5v2.8c0,0.8-0.7,1.5-1.5,1.5h-7.7c-0.8,0-1.5-0.7-1.5-1.5v-2.8        C155.7,212.5,156.3,211.9,157.2,211.9z"></path><path fill="#2178bd" d="M164.9,217.6c-0.4-1.2-1.5-2-2.7-2h-0.5h-1.3h-0.5c-1.3,0-2.4,0.8-2.7,2l-1.1,3.8        c-0.5,1.8,0.8,3.6,2.7,3.6h1.6h1.3h1.6c1.9,0,3.2-1.8,2.7-3.6L164.9,217.6z"></path><path fill="none" stroke="#246592" stroke-linecap="round" stroke-linejoin="round" stroke-miterlimit="10" stroke-width=".323" d="M157.5 223.3L157.5 223.3c2.1-1.7 5.1-1.7 7.2 0l0 0M157.2 217.6L157.2 217.6c2.5.4 5.1.4 7.7 0l0 0"></path></g><g><path fill="#2178bd" d="M143,211.9h-7.7c-0.8,0-1.5,0.7-1.5,1.5v2.8c0,0.8,0.7,1.5,1.5,1.5h7.7c0.8,0,1.5-0.7,1.5-1.5v-2.8        C144.5,212.5,143.8,211.9,143,211.9z"></path><path fill="#2178bd" d="M135.3,217.6c0.4-1.2,1.5-2,2.7-2h0.5h1.3h0.5c1.3,0,2.4,0.8,2.7,2l1.1,3.8c0.5,1.8-0.8,3.6-2.7,3.6        h-1.6h-1.3h-1.6c-1.9,0-3.2-1.8-2.7-3.6L135.3,217.6z"></path><path fill="none" stroke="#246592" stroke-linecap="round" stroke-linejoin="round" stroke-miterlimit="10" stroke-width=".323" d="M142.7 223.3L142.7 223.3c-2.1-1.7-5.1-1.7-7.2 0l0 0M143 217.6L143 217.6c-2.5.4-5.1.4-7.7 0l0 0"></path></g><g><path fill="#f8ad9c" d="M152.1,102.7h-4c-1.4,0-2.5,1.1-2.6,2.4l-0.2,3.5c0,0.5,0.1,1.1,0.4,1.5c0.7,1.2,2.3,3.3,4.6,3.3          c2,0,3.5-1.9,4.1-3c0.2-0.4,0.4-0.9,0.4-1.4c0-0.9,0-2.4,0-3.8C154.6,103.9,153.5,102.7,152.1,102.7z"></path><ellipse cx="147.5" cy="104.7" fill="#4d1e33" rx="1.6" ry=".3" transform="rotate(-.992 147.484 104.647) scale(.99995)"></ellipse><ellipse cx="152.7" cy="104.8" fill="#4d1e33" rx=".3" ry="1.5" transform="rotate(-87.587 152.665 104.787)"></ellipse><path fill="#d08487" d="M149.8 113.4c-.8 0-1.6-.3-2.2-.7-.1 0-.1-.2 0-.2l0 0c.1-.1.1-.1.2 0 1.3.9 3.1.9 4.5 0 .1 0 .2 0 .2 0 0 .1 0 .2 0 .2C151.7 113.3 150.7 113.5 149.8 113.4zM150.6 108.1l-.2.1c-.2.1-.4.1-.6 0l-.3-.1c-.1 0-.2.1-.1.2l.2.2c.3.3.8.3 1.1 0l.1-.1C150.8 108.2 150.7 108.1 150.6 108.1z"></path><path fill="#fff" d="M146.6,106.1c0,0,0.3,0.5,1,0.5s0.8-0.3,1-0.3c0.2,0-0.1-0.5-0.5-0.6          C147,105.3,146.6,106.1,146.6,106.1z"></path><path fill="#2b1d30" d="M148.6,106.1L148.6,106.1c0.1,0,0.1-0.1,0.1-0.2c-0.1-0.2-0.4-0.4-1-0.4c-0.9-0.1-1.2,0.6-1.2,0.6          l0.1,0.1c0,0,0.4-0.4,0.9-0.5S148.6,106.1,148.6,106.1z"></path><path fill="#2b1d30" d="M147,105.9c0,0.3,0.2,0.6,0.6,0.6s0.6-0.2,0.6-0.6s-0.2-0.4-0.6-0.4S147,105.6,147,105.9z"></path><ellipse cx="147.9" cy="106" fill="#fff" rx=".2" ry=".1" transform="matrix(.02708 -.9996 .9996 .02708 37.936 250.899)"></ellipse><g><path fill="#fff" d="M153.6,106.3c0,0-0.3,0.5-1,0.4s-0.7-0.4-0.9-0.4s0.1-0.5,0.5-0.6C153.2,105.5,153.6,106.3,153.6,106.3          z"></path><path fill="#2b1d30" d="M151.6,106.2L151.6,106.2c-0.1,0-0.1-0.2-0.1-0.2c0.2-0.2,0.5-0.4,1-0.4c0.9,0,1.2,0.7,1.2,0.7l-0.1,0          c0,0-0.4-0.5-0.9-0.6C152.1,105.6,151.6,106.2,151.6,106.2z"></path><path fill="#2b1d30" d="M153.1,106.1c0,0.3-0.3,0.6-0.6,0.6s-0.6-0.3-0.6-0.6s0.3-0.4,0.6-0.4          C152.9,105.7,153.1,105.8,153.1,106.1z"></path><ellipse cx="152.3" cy="106.1" fill="#fff" rx=".2" ry=".1" transform="matrix(.02708 -.9996 .9996 .02708 42.147 255.466)"></ellipse></g></g><polyline fill="none" stroke="#1c649e" stroke-linecap="round" stroke-linejoin="round" stroke-miterlimit="10" stroke-width=".323" points="145.3 107.2 149.9 110.1 154.7 107.2"></polyline><g><path fill="#1c649e" d="M153.3,108.9c-0.3,0-0.5,0-0.8,0.1l-1.6-1.3c-0.7-0.5-1.6-0.5-2.2,0.1l-1.7,1.8l-1.4,0.2       c-0.3,0-0.5,0.3-0.5,0.6l0.4,2.5c0,0.3,0.3,0.5,0.6,0.5l1-0.2l0.5,0.3c1.2,0.6,2.6,0.7,3.9,0.2c0.5,0.4,1.1,0.6,1.8,0.6       c1.5,0,2.8-1.2,2.8-2.8C156.1,110.1,154.8,108.9,153.3,108.9z"></path><path fill="#2178bd" d="M152.9 112C152.8 112 152.8 112 152.9 112l-1.7-1.1c-.6-.4-.9-1.2-.7-1.9l.3-1c0-.1.1-.1.2-.1.1 0 .1.1.1.2l-.3 1c-.2.6 0 1.2.5 1.5l1.6 1.1c.1.1.1.2 0 .2C153 112 152.9 112 152.9 112zM147 112c-.1 0-.1 0-.1-.1-.1-.1 0-.2 0-.2l1.6-1.1c.5-.3.7-1 .5-1.5l-.3-1c0-.1 0-.2.1-.2.1 0 .2 0 .2.1l.3 1c.2.7 0 1.5-.7 1.9L147 112C147.1 112 147.1 112 147 112z"></path><circle cx="153" cy="111.7" r="2" fill="#2178bd"></circle><circle cx="153.7" cy="111.7" r="2" fill="#f9be13"></circle><circle cx="153.9" cy="111.7" r="2" fill="#2178bd"></circle><circle cx="154.2" cy="111.8" r="1.4" fill="#f9be13"></circle></g></g><g><rect width=".2" height="50.8" x="114.6" y="114.1" fill="#5657a5"></rect><path fill="#5657a5" d="M114.7,129.8L114.7,129.8c-0.1,0-0.2-0.1-0.2-0.2v-0.7c0-0.1,0.1-0.2,0.2-0.2l0,0c0.1,0,0.2,0.1,0.2,0.2      v0.7C115,129.7,114.8,129.8,114.7,129.8z"></path><path fill="#fff" d="M115.7,116.9c0-0.6-0.5-1-1-1s-1,0.5-1,1h-1.9v6.6l0.9,1.1h3.9l0.9-1.1v-6.6H115.7z M114.7,116       c0.5,0,0.9,0.4,0.9,0.9h-1.8C113.8,116.4,114.2,116,114.7,116z"></path><polygon fill="#5657a5" points="112.3 120.4 112.3 123.2 113 124.1 116.2 124.1 116.9 123.2 116.9 120.4"></polygon><path fill="#50519b" d="M121.8,230.2V105.8c0-0.4-0.3-0.7-0.7-0.7c-0.4,0-0.7,0.3-0.7,0.7v124.4H121.8z"></path><path fill="none" stroke="#50519b" stroke-linecap="round" stroke-miterlimit="10" stroke-width=".646" d="M112.3,108.2v4.4c0,1.3,1.1,2.4,2.4,2.4l0,0c1.3,0,2.4-1.1,2.4-2.4v-1.9c0-1.3,1.1-2.4,2.4-2.4h3.4      c1.3,0,2.4,1.1,2.4,2.4v1.9c0,1.3,1.1,2.4,2.4,2.4h0c1.3,0,2.4-1.1,2.4-2.4v-4.4"></path></g><g><path fill="#fff" d="M226.5,168.8H87.2l-17.1-22.1c-1.5-1.9-3.8-3.1-6.2-3.1h-8.7l27.2,33.8h144.1V168.8z"></path><circle cx="66.4" cy="138.7" r="5.3" fill="#231f20"></circle><circle cx="61.1" cy="137.7" r="2.3" fill="#231f20"></circle><path fill="#cc8067" d="M64.8,140c0.5-0.3,1-0.2,1-0.2s1.3-1.1,1.3-2.8c0-1.6-0.8-2.6-0.8-2.6s1.5-0.2,2.7,0.4                      c0.1,0.1,0.2,0.1,0.3,0.2c1.4,0.6,2.4,2.1,2.4,3.7c0,0.2,0,0.3,0,0.5c-0.2,1.4-0.9,2.1-0.9,2.1l3,3.2l0,0l0,0                      l-4.1,3.1l-3.3-6c0,0-1,0.8-1.7,0.1C64.1,141.2,64.3,140.3,64.8,140z"></path><ellipse cx="68.8" cy="135.9" fill="#231f20" rx=".7" ry=".2" transform="rotate(-53.63 68.748 135.919)"></ellipse><path fill="#a5644b" d="M70.9 141.4l.7.8c0 0-1.2-.2-2-.4 0 0 0 0 0 0-.2 0-.1-.3 0-.3.4 0 .7 0 .8 0C70.7 141.4 70.9 141.4 70.9 141.4zM65.6 140.7c-.3-.2-.7.1-.7.1 0 0 0 0 0 0s0 0 0 0C65 140.8 65.3 140.6 65.6 140.7c0 .1 0 .1.1.1 0 .1-.1.3-.3.4-.1 0-.2 0-.2 0 0 0 0 0 0 0 0 0 0 0 0 0 0 0 .1.1.3.1 0 0 .1 0 .1-.1.1-.1.2-.3.2-.3.2.2.3.4.3.4 0 0 0 0 0 0 0 0 0 0 0 0 0 0 0 0 0 0C66.1 141.2 65.9 140.9 65.6 140.7z"></path><ellipse cx="69.7" cy="136.2" fill="#201d11" rx=".2" ry=".5" transform="rotate(-54.486 69.698 136.21)"></ellipse><ellipse cx="71" cy="136.8" fill="#cc8067" rx=".9" ry=".6" transform="rotate(-50.848 70.988 136.78)"></ellipse><ellipse cx="69.8" cy="136.1" fill="#fff" rx=".1" ry=".2" transform="rotate(-60 69.76 136.13)"></ellipse><path fill="#a2173c" d="M71,138.9l0.7-0.5c0.1,0,0.1-0.1,0-0.2l0,0c0-0.1-0.1-0.1-0.2,0l-0.7,0.5c-0.1,0-0.1,0.1,0,0.2l0,0          C70.9,138.9,70.9,138.9,71,138.9z"></path><path fill="#fcb417" d="M103.3,165.5l8.3,12l-24.5,3c-7.9-7-15.5-15.1-17.1-18.6c-2.7-5.9-5.1-12.2,1.4-17.4              c8.7-7.1,21.3,5.7,21.3,5.7l-11.2,8.6L103.3,165.5z"></path><path fill="#efeeee" d="M98.5,171.5l4.8-10c0.6-1.3,1.9-2.2,3.3-2.2h105.4c0.5,0,1-0.1,1.4-0.3l9.6-4.5c2.5-1.1,5.1,0.9,5.1,3.8      v15.1l0,0c0,2.3-1.7,4.2-3.7,4.2H101.8C98.9,177.6,97.1,174.2,98.5,171.5z"></path><path fill="#cc8067" d="M126.3,168.8l-26.6-4.4L90.2,152l-8.7,6.7l10.2,12.5c1.9,2.3,4.8,3.5,7.7,3.3l26.9,0L126.3,168.8z"></path><path fill="#5657a5" d="M227.4,176.1H83.9l-28.5-34.4c-0.8-1-2.2-1-3-0.1c-0.9,0.9-0.9,2.4-0.1,3.4l30.2,35.9h145.2        c1.3,0,2.3-1,2.3-2.3l0,0C230,177.2,228.8,176.1,227.4,176.1z"></path><path fill="#5657a5" d="M134.6,215.6c-0.3,0-0.6-0.2-0.8-0.4c-0.3-0.4-0.1-1,0.3-1.2l59.5-35.5c0.4-0.3,1-0.1,1.2,0.3        c0.3,0.4,0.1,1-0.3,1.2l-59.5,35.5C134.9,215.6,134.8,215.6,134.6,215.6z"></path><path fill="#5657a5" d="M194.5,215.6c-0.2,0-0.3,0-0.5-0.1l-58.2-34.8c-0.4-0.3-0.6-0.8-0.3-1.2c0.3-0.4,0.8-0.6,1.2-0.3        L195,214c0.4,0.3,0.6,0.8,0.3,1.2C195.1,215.5,194.8,215.6,194.5,215.6z"></path><path fill="#5657a5" d="M225.1,227.4c-0.5,0-0.9-0.4-0.9-0.9v-8.3c0-1.4-1.5-2.6-3.4-2.6H99.5c-1.9,0-3.4,1.1-3.4,2.6v8.3        c0,0.5-0.4,0.9-0.9,0.9s-0.9-0.4-0.9-0.9v-8.3c0-2.4,2.3-4.3,5.2-4.3h121.3c2.8,0,5.2,1.9,5.2,4.3v8.3        C226,227,225.6,227.4,225.1,227.4z"></path><path fill="#5657a5" d="M204.6 227.4c-.5 0-.9-.4-.9-.9v-11.7c0-.5.4-.9.9-.9.5 0 .9.4.9.9v11.7C205.4 227 205 227.4 204.6 227.4zM115.2 227.4c-.5 0-.9-.4-.9-.9v-11.7c0-.5.4-.9.9-.9.5 0 .9.4.9.9v11.7C116 227 115.6 227.4 115.2 227.4z"></path><circle cx="225.1" cy="227.2" r="3" fill="#102230"></circle><circle cx="225.1" cy="227.2" r="1.8" fill="#3e586d"></circle><circle cx="204.6" cy="227.2" r="3" fill="#102230"></circle><circle cx="204.6" cy="227.2" r="1.8" fill="#3e586d"></circle><circle cx="115.2" cy="227.2" r="3" fill="#102230"></circle><circle cx="115.2" cy="227.2" r="1.8" fill="#3e586d"></circle><circle cx="95.2" cy="227.2" r="3" fill="#102230"></circle><circle cx="95.2" cy="227.2" r="1.8" fill="#3e586d"></circle><g><path fill="#5657a5" d="M219.9,177.9v-8c0-1.8-1.4-3.2-3.2-3.2h-43.3c-1.8,0-3.2,1.4-3.2,3.2v8H219.9z"></path></g><g><path fill="#5657a5" d="M164.9,177.9v-8c0-1.8-1.4-3.2-3.2-3.2h-43.3c-1.8,0-3.2,1.4-3.2,3.2v8H164.9z"></path></g><line x1="75.3" x2="81.2" y1="151.6" y2="158.5" fill="none" stroke="#fff" stroke-linecap="round" stroke-linejoin="round" stroke-miterlimit="10" stroke-width=".646"></line></g><line x1="278.5" x2="21.5" y1="230.2" y2="230.2" fill="none" stroke="#000425" stroke-linecap="round" stroke-linejoin="round" stroke-miterlimit="10" stroke-width=".646"></line></svg>